<svg version="1.0" xmlns="http://www.w3.org/2000/svg"
  viewBox="0 0 1024 373"
 preserveAspectRatio="xMidYMid meet">

<g transform="translate(0.000000,373.000000) scale(0.100000,-0.100000)"
fill="#ee0000" stroke="none">
<path d="M3767 3723 c-4 -3 -109 -10 -234 -14 -201 -6 -256 -12 -464 -48 -130
-22 -278 -54 -330 -71 -206 -67 -389 -174 -632 -367 -147 -117 -229 -194 -542
-508 -132 -133 -536 -534 -898 -893 l-658 -652 719 0 719 0 148 152 c82 83
178 177 214 209 36 31 183 173 326 315 243 241 503 488 664 629 126 111 306
203 481 246 41 10 138 26 215 35 126 15 328 17 2059 21 l1919 5 476 474 476
474 -2326 0 c-1279 0 -2329 -3 -2332 -7z"/>
<path d="M7429 2453 l-1274 -1278 758 -3 759 -2 1281 1280 1282 1280 -766 0
-766 0 -1274 -1277z"/>
<path d="M3725 2599 c-22 -4 -72 -8 -112 -8 -159 -2 -362 -46 -495 -109 -46
-21 -119 -66 -163 -100 -44 -33 -341 -320 -660 -636 l-580 -576 664 0 663 0
214 213 c313 310 339 323 689 337 121 5 728 9 1348 10 l1129 0 441 440 442
440 -1770 -1 c-973 -1 -1788 -5 -1810 -10z"/>
<path d="M90 335 l0 -337 203 4 c229 6 277 16 344 73 61 52 78 105 78 240 -1
185 -44 275 -158 326 -48 21 -69 24 -259 27 l-208 4 0 -337z m426 216 c52 -29
63 -54 75 -162 10 -100 -2 -192 -29 -229 -40 -53 -76 -65 -218 -68 l-131 -4
-6 84 c-9 107 -9 302 -1 363 l7 47 131 -4 c116 -3 136 -6 172 -27z"/>
<path d="M2620 590 l0 -50 -45 0 -45 0 0 -45 0 -45 45 0 45 0 0 -171 c0 -192
7 -221 63 -254 25 -15 56 -20 140 -23 l107 -4 0 46 0 46 -76 0 c-119 0 -114
-8 -114 190 l0 170 155 0 155 0 0 45 0 45 -155 0 -155 0 0 50 0 50 -60 0 -60
0 0 -50z"/>
<path d="M7200 590 l0 -50 -45 0 -45 0 0 -45 0 -45 45 0 45 0 0 -167 c0 -185
8 -217 63 -257 23 -17 47 -21 138 -24 l109 -4 0 46 0 46 -76 0 c-119 0 -114
-8 -114 190 l0 170 95 0 95 0 0 45 0 45 -95 0 -95 0 0 50 0 50 -60 0 -60 0 0
-50z"/>
<path d="M6141 539 c-70 -9 -133 -34 -158 -62 -12 -13 -28 -55 -38 -101 -24
-108 -17 -199 21 -274 28 -53 33 -58 79 -69 62 -16 236 -33 333 -33 l72 0 0
45 0 45 -150 0 c-204 0 -250 20 -250 110 l0 30 211 0 211 0 -7 82 c-9 98 -44
182 -86 204 -15 7 -54 16 -86 19 -32 4 -67 8 -78 9 -11 2 -44 0 -74 -5z m145
-89 c39 -15 53 -39 54 -86 l0 -41 -86 -6 c-47 -3 -113 -2 -146 1 l-60 5 6 36
c7 44 35 83 67 92 38 11 135 10 165 -1z"/>
<path d="M1370 495 l0 -45 162 0 162 0 -30 -31 c-16 -17 -60 -51 -99 -76 -105
-69 -144 -102 -171 -144 -41 -65 -24 -159 30 -173 51 -13 215 -26 329 -26
l117 0 0 183 c0 211 -11 270 -60 311 -46 38 -90 46 -272 46 l-168 0 0 -45z
m390 -270 c0 -110 -2 -126 -17 -132 -32 -13 -207 -9 -230 5 -54 30 -17 81 123
175 39 26 77 54 84 62 7 8 19 15 26 15 11 0 14 -26 14 -125z"/>
<path d="M3580 495 l0 -45 162 0 162 0 -30 -31 c-16 -17 -60 -51 -99 -76 -105
-69 -144 -102 -171 -144 -41 -65 -24 -159 30 -173 51 -13 215 -26 329 -26
l117 0 0 183 c0 211 -11 270 -60 311 -46 38 -90 46 -272 46 l-168 0 0 -45z
m390 -270 c0 -110 -2 -126 -17 -132 -32 -13 -207 -9 -230 5 -54 30 -17 81 123
175 39 26 77 54 84 62 7 8 19 15 26 15 11 0 14 -26 14 -125z"/>
<path d="M4905 524 c-38 -7 -81 -22 -95 -32 -30 -23 -53 -86 -46 -127 14 -73
64 -104 229 -141 123 -27 154 -46 143 -87 -10 -42 -54 -52 -218 -52 l-148 0 0
-42 0 -43 48 0 c26 0 112 3 192 6 l145 7 53 52 c58 58 65 89 36 152 -23 46
-83 75 -218 104 -125 26 -152 42 -142 83 10 41 45 50 209 50 l147 1 0 42 0 43
-132 -1 c-73 0 -164 -7 -203 -15z"/>
</g>
</svg>
